<svg width="371" height="53" viewBox="0 0 371 53" xmlns="http://www.w3.org/2000/svg"><title>logo</title><g fill="#FFF" fill-rule="evenodd"><path d="M189.946 13.83l9.153-.042c3.5-.016 6.242.594 8.228 1.828 1.987 1.235 2.988 3.588 3.004 7.058.02 4.25-1.69 6.703-5.13 7.355 2.084.25 3.65 1.11 4.697 2.58 1.047 1.47 1.577 3.493 1.588 6.067.03 6.796-3.496 10.21-10.582 10.242l-10.802.048-.158-35.14zm9.347 14.013c1.648-.008 2.767-.39 3.357-1.143.59-.755.88-1.927.873-3.518-.006-1.388-.387-2.435-1.142-3.14-.754-.705-1.855-1.055-3.3-1.048l-1.345.006.04 8.85 1.518-.007zm.2 15.66c1.65-.008 2.81-.425 3.487-1.252.676-.827 1.01-2.122 1.002-3.887-.01-1.995-.355-3.396-1.038-4.203-.684-.807-1.864-1.206-3.54-1.2l-1.606.01.047 10.54 1.648-.007zm15.96-29.79l9.675-.042c3.846-.016 6.756.65 8.728 2 1.973 1.35 2.967 3.76 2.983 7.232.01 2.342-.286 4.21-.887 5.6-.6 1.39-1.724 2.48-3.37 3.27l4.893 16.982-8.026.036-3.93-15.73-2.214.01.07 15.748-7.764.035-.158-35.14zm10.002 14.88c1.562-.007 2.652-.424 3.27-1.25.618-.83.923-2.066.916-3.715-.006-1.59-.3-2.782-.883-3.575-.582-.792-1.58-1.186-3-1.18l-2.515.012.044 9.717 2.17-.01zm20.973-15.018l8.85-.04 6.708 35.11-7.158.03-1.205-7.412-5.162.024-1.18 7.423-7.33.033 6.478-35.168zm6.437 23.05l-1.927-13.7-1.804 13.717 3.73-.017zm10.655-23.127l6.593-.03 2.175 20.467 2.554-20.445 5.162-.023 2.868 20.29 2.034-20.355 6.507-.03-4.05 35.158-6.767.03-3.09-21.2-2.723 21.226-6.854.03-4.41-35.118zm31.667-.143l7.765-.035.135 29.89 8.07-.037.022 5.25-15.834.07-.16-35.138zM30.887 44.836c-1.66 1.427-3.52 2.522-5.577 3.286-2.058.763-4.19 1.145-6.397 1.145-1.693 0-3.324-.22-4.892-.66-1.567-.44-3.036-1.062-4.405-1.867-1.37-.805-2.618-1.772-3.747-2.9-1.128-1.13-2.095-2.378-2.9-3.747-.805-1.37-1.427-2.838-1.867-4.406-.44-1.568-.66-3.2-.66-4.892 0-1.692.22-3.327.66-4.904.44-1.575 1.063-3.048 1.868-4.417.805-1.37 1.772-2.62 2.9-3.747 1.13-1.13 2.377-2.095 3.747-2.9 1.37-.805 2.838-1.427 4.406-1.867 1.57-.44 3.2-.66 4.893-.66 2.207 0 4.34.377 6.397 1.132 2.058.755 3.917 1.854 5.577 3.298l-3.784 6.224c-1.046-1.13-2.282-1.996-3.71-2.602-1.427-.605-2.92-.908-4.48-.908-1.577 0-3.054.298-4.432.896-1.376.597-2.58 1.406-3.608 2.427-1.03 1.02-1.842 2.224-2.44 3.61-.597 1.385-.896 2.858-.896 4.418s.3 3.025.896 4.394c.598 1.368 1.41 2.567 2.44 3.596 1.03 1.03 2.232 1.842 3.61 2.44 1.377.597 2.854.896 4.43.896 1.56 0 3.054-.303 4.48-.91 1.43-.604 2.665-1.47 3.71-2.6l3.785 6.224zm28.254-9.908c0 1.99-.355 3.846-1.07 5.564-.713 1.717-1.684 3.203-2.912 4.456-1.228 1.253-2.668 2.24-4.32 2.962-1.65.722-3.422 1.083-5.314 1.083-1.875 0-3.638-.36-5.29-1.083-1.65-.722-3.095-1.71-4.33-2.962-1.238-1.253-2.213-2.74-2.926-4.456-.714-1.718-1.07-3.573-1.07-5.564 0-2.025.356-3.9 1.07-5.626.713-1.726 1.688-3.216 2.925-4.47 1.236-1.252 2.68-2.235 4.33-2.95 1.653-.712 3.416-1.07 5.29-1.07 1.893 0 3.665.337 5.316 1.01 1.65.67 3.09 1.625 4.318 2.862 1.228 1.236 2.2 2.722 2.913 4.456.715 1.734 1.07 3.663 1.07 5.788zm-6.845 0c0-1.096-.178-2.087-.535-2.975-.357-.888-.842-1.65-1.456-2.29-.614-.64-1.332-1.13-2.153-1.47-.82-.34-1.696-.51-2.626-.51-.93 0-1.805.17-2.626.51-.822.34-1.535.83-2.14 1.47-.607.64-1.084 1.402-1.432 2.29-.35.888-.523 1.88-.523 2.975 0 1.03.174 1.983.523 2.863.348.88.825 1.644 1.43 2.29.607.648 1.32 1.158 2.142 1.532.82.373 1.697.56 2.626.56.93 0 1.805-.174 2.627-.523.822-.35 1.54-.84 2.154-1.47.614-.63 1.1-1.394 1.456-2.29.357-.896.535-1.884.535-2.962zm17.4 13.567H62.9V21.833h1.643l2.24 2.59c1.096-.996 2.337-1.764 3.722-2.303 1.386-.54 2.834-.81 4.344-.81 1.626 0 3.16.312 4.605.934 1.444.623 2.705 1.477 3.784 2.564 1.078 1.087 1.928 2.357 2.55 3.81.623 1.45.934 3 .934 4.642v15.235h-6.796V33.26c0-.697-.133-1.357-.398-1.98-.266-.622-.63-1.165-1.096-1.63-.464-.464-1.004-.83-1.618-1.095-.614-.266-1.27-.398-1.967-.398-.714 0-1.386.132-2.017.398-.63.265-1.178.63-1.643 1.095-.465.465-.83 1.008-1.095 1.63-.266.623-.4 1.283-.4 1.98v15.235zm36.496 0H90.658v-6.77h15.534c.466 0 .864-.167 1.196-.5.332-.33.498-.73.498-1.194 0-.48-.166-.796-.498-.945-.332-.15-.73-.224-1.195-.224h-7.07c-1.177 0-2.28-.223-3.31-.67-1.03-.45-1.925-1.06-2.688-1.83-.764-.773-1.365-1.673-1.805-2.702-.44-1.03-.66-2.132-.66-3.31 0-1.18.22-2.283.66-3.312.44-1.03 1.04-1.925 1.805-2.688.763-.764 1.66-1.365 2.688-1.805 1.03-.44 2.133-.66 3.31-.66h13.768v6.77H99.12c-.464 0-.862.167-1.194.5-.332.33-.498.73-.498 1.194 0 .482.166.892.498 1.232.332.34.73.51 1.195.51h7.07c1.163 0 2.258.195 3.287.585 1.03.39 1.925.933 2.69 1.63.762.697 1.368 1.536 1.816 2.515.448.98.672 2.05.672 3.21 0 1.18-.224 2.28-.672 3.3-.448 1.02-1.054 1.916-1.817 2.688-.764.772-1.66 1.378-2.69 1.817-1.028.44-2.123.66-3.285.66zm37.84-13.567c0 1.99-.357 3.846-1.07 5.564-.714 1.717-1.685 3.203-2.913 4.456-1.228 1.253-2.668 2.24-4.32 2.962-1.65.722-3.422 1.083-5.314 1.083-1.875 0-3.64-.36-5.29-1.083-1.65-.722-3.095-1.71-4.332-2.962-1.235-1.253-2.21-2.74-2.924-4.456-.713-1.718-1.07-3.573-1.07-5.564 0-2.025.357-3.9 1.07-5.626.714-1.726 1.69-3.216 2.925-4.47 1.238-1.252 2.682-2.235 4.333-2.95 1.65-.712 3.415-1.07 5.29-1.07 1.892 0 3.664.337 5.315 1.01 1.65.67 3.09 1.625 4.32 2.862 1.227 1.236 2.198 2.722 2.912 4.456.713 1.734 1.07 3.663 1.07 5.788zm-6.846 0c0-1.096-.178-2.087-.535-2.975-.358-.888-.843-1.65-1.457-2.29-.614-.64-1.332-1.13-2.154-1.47-.822-.34-1.698-.51-2.627-.51-.93 0-1.805.17-2.626.51-.822.34-1.535.83-2.14 1.47-.607.64-1.084 1.402-1.433 2.29-.348.888-.522 1.88-.522 2.975 0 1.03.174 1.983.522 2.863.35.88.826 1.644 1.432 2.29.606.648 1.32 1.158 2.14 1.532.822.373 1.698.56 2.627.56.93 0 1.805-.174 2.626-.523.82-.35 1.54-.84 2.153-1.47.614-.63 1.1-1.394 1.456-2.29.356-.896.534-1.884.534-2.962zm17.45 13.567h-6.845V11.23h6.845v37.265zm15.784-6.522c.265.083.53.137.796.162.266.024.53.037.797.037.665 0 1.304-.09 1.918-.274.614-.182 1.19-.444 1.73-.784s1.02-.755 1.444-1.245c.423-.49.767-1.034 1.033-1.63l4.98 5.002c-.632.897-1.358 1.7-2.18 2.415-.82.714-1.71 1.32-2.663 1.817-.955.498-1.96.876-3.012 1.133-1.054.257-2.137.386-3.25.386-1.874 0-3.638-.35-5.29-1.046-1.65-.697-3.094-1.668-4.33-2.912-1.237-1.245-2.212-2.726-2.926-4.444-.713-1.717-1.07-3.604-1.07-5.662 0-2.108.357-4.033 1.07-5.776.714-1.742 1.69-3.228 2.925-4.456 1.236-1.228 2.68-2.182 4.33-2.863 1.652-.68 3.416-1.02 5.29-1.02 1.113 0 2.2.133 3.262.398 1.062.267 2.07.648 3.025 1.146.954.498 1.846 1.108 2.676 1.83.83.722 1.56 1.53 2.19 2.427l-12.745 15.36zm3.485-14.016c-.315-.116-.627-.19-.934-.224-.308-.033-.627-.05-.96-.05-.928 0-1.804.17-2.625.51-.822.34-1.536.827-2.14 1.457-.607.63-1.084 1.39-1.433 2.278-.348.888-.522 1.888-.522 3 0 .25.012.53.037.846.025.315.066.635.124.96.06.322.13.633.213.932.083.3.19.564.324.797l7.916-10.506zM322.2 40.2L336.1 53l4.5-5.2s1.4.4 3.2 0c3-1.5 14-13.4 14-16.1 0-1.3-1.3-2.6-2.8-4.7v2.7l-2.1 2.4-.7-.7 2-2.5.3-3c-1.1-1.4-2.3-3-3.6-4.4l-.4 4.2-2.1 2.4-.8-.8 2-2.5.5-4.4c-1.1-1.3-2.3-2.6-3.2-3.6l-.3 4.9-2.1 2.4-.8-.8 2-2.5.1-4.9c-.4-.5-1-1.7-3-1.7-1.9 0-2.4 1-3.1 1.8v4.3l-4.5 5-1.1-.8 4.5-4.9v-3.3c-2.4-1.1-4.4.5-4.4.5s-7.5 8.5-8.2 10.4c-.8 1.8.6 8.4.6 8.4l-4.4 4.6z"/><path d="M329.9 16.1c.2.1-.6-13.8-.6-13.8l8 6.9 3-9 5 7.9 7.6-8.1-1 11.2 12.9-6.6L359 16l12-.2-8.5 7.2 8.5 3.9-6.8 4.2 5.7 8.1-13.2 1.2 10-2.7-6.6-7.6 7-2.9s-9.1-4-9.3-4c-.2 0 7.5-5.3 7.5-5.3s-10.3 1.3-10.4.9c-.1-.4 5.2-9.7 5.2-9.7L350 14.8l.5-9.9-4.7 7.3-5.2-8.4-2.2 9-7.4-6.5c0-.1-1.3 9.7-1.1 9.8z"/></g></svg>