<svg width="373" height="66" viewBox="0 0 373 66" xmlns="http://www.w3.org/2000/svg"><title>Untitled 2</title><g fill="#FFF" fill-rule="evenodd"><text transform="rotate(-.258 255.14 33.18)" font-family="Oswald-Bold, Oswald" font-size="43.381" font-weight="bold"><tspan x="188.413" y="52.679">BRAWL</tspan></text><text font-family="Righteous-Regular, Righteous" font-size="50.983"><tspan x=".072" y="52.495">Console</tspan></text><path d="M323.2 44.2L337.1 57l4.5-5.2s1.4.4 3.2 0c3-1.5 14-13.4 14-16.1 0-1.3-1.3-2.6-2.8-4.7v2.7l-2.1 2.4-.7-.7 2-2.5.3-3c-1.1-1.4-2.3-3-3.6-4.4l-.4 4.2-2.1 2.4-.8-.8 2-2.5.5-4.4c-1.1-1.3-2.3-2.6-3.2-3.6l-.3 4.9-2.1 2.4-.8-.8 2-2.5.1-4.9c-.4-.5-1-1.7-3-1.7-1.9 0-2.4 1-3.1 1.8v4.3l-4.5 5-1.1-.8 4.5-4.9v-3.3c-2.4-1.1-4.4.5-4.4.5s-7.5 8.5-8.2 10.4c-.8 1.8.6 8.4.6 8.4l-4.4 4.6z"/><path d="M330.9 20.1c.2.1-.6-13.8-.6-13.8l8 6.9 3-9 5 7.9 7.6-8.1-1 11.2 12.9-6.6L360 20l12-.2-8.5 7.2 8.5 3.9-6.8 4.2 5.7 8.1-13.2 1.2 10-2.7-6.6-7.6 7-2.9s-9.1-4-9.3-4c-.2 0 7.5-5.3 7.5-5.3s-10.3 1.3-10.4.9c-.1-.4 5.2-9.7 5.2-9.7L351 18.8l.5-9.9-4.7 7.3-5.2-8.4-2.2 9-7.4-6.5c0-.1-1.3 9.7-1.1 9.8z"/></g></svg>